<svg fill="none" height="15" viewBox="0 0 15 15" width="15" xmlns="http://www.w3.org/2000/svg"><path d="m6.72156 13.25c0 .4142.33578.75.75.75.41421 0 .75-.3358.75-.75zm0-4.35046v4.35046h1.5v-4.35046z" fill="#4147d5"/><g stroke="#4147d5" stroke-width="1.5"><path d="m3.25339 5.26653c.00848 1.9299 1.56609 3.53049 3.4941 3.61622.23982.01066.48123.01679.72409.01679.24285 0 .48426-.00613.72408-.01679 1.92804-.08573 3.48564-1.68632 3.49414-3.61622.0044-1.00376-.0348-2.00824-.1155-3.01767-.0385-.48094-.4249-.85847-.9063-.89022-2.19606-.14485-4.19679-.14485-6.39286 0-.48143.03175-.86775.40928-.90624.89022-.08078 1.00943-.11993 2.01391-.11551 3.01767z" fill="#fff"/><path d="m6.63188 8.87726c-1.86054-.09393-3.36347-1.63222-3.37788-3.49507-.0004-.05195-.01087-.56855.00377-.56959 2.80672-.19459 5.62431-.2023 8.43093.00024.0017.18982.0017.37959.0003.56935-.0144 1.86285-1.5174 3.40114-3.37789 3.49507-.27778.01403-.55773.02228-.83962.02228s-.56184-.00825-.83961-.02228z" fill="#d7e0ff"/><path d="m10.0356 13.25h-5.12806" stroke-linecap="round"/></g></svg>